<?xml version="1.0" standalone="no"?>
<!DOCTYPE svg PUBLIC "-//W3C//DTD SVG 20010904//EN"
 "http://www.w3.org/TR/2001/REC-SVG-20010904/DTD/svg10.dtd">
<svg version="1.0" xmlns="http://www.w3.org/2000/svg"
 width="512.000000pt" height="512.000000pt" viewBox="0 0 512.000000 512.000000"
 preserveAspectRatio="xMidYMid meet">
<metadata>
Created by potrace 1.14, written by Peter Selinger 2001-2017
</metadata>
<g transform="translate(0.000000,512.000000) scale(0.100000,-0.100000)"
fill="#000000" stroke="none">
<path d="M430 5113 c-204 -34 -374 -197 -419 -403 -7 -29 -10 -786 -10 -2155
0 -2259 -2 -2149 48 -2258 69 -149 218 -263 378 -287 46 -7 754 -10 2178 -8
l2110 3 59 22 c51 20 162 87 192 117 71 72 129 187 144 285 7 43 10 791 8
2176 l-3 2110 -23 59 c-64 169 -191 284 -365 331 -44 11 -390 13 -2162 13
-1160 0 -2121 -3 -2135 -5z"/>
</g>
</svg>
